<mxfile host="app.diagrams.net" modified="2023-05-23T05:13:20.973Z" agent="Mozilla/5.0 (Windows NT 10.0; Win64; x64) AppleWebKit/537.36 (KHTML, like Gecko) Chrome/113.0.0.0 Safari/537.36 Edg/113.0.1774.50" etag="qENTffL9i_UNJpw2fB1K" version="21.3.2" type="github">
  <diagram name="Page-1" id="2YBvvXClWsGukQMizWep">
    <mxGraphModel dx="1434" dy="764" grid="1" gridSize="10" guides="1" tooltips="1" connect="1" arrows="1" fold="1" page="1" pageScale="1" pageWidth="850" pageHeight="1100" math="0" shadow="0">
      <root>
        <mxCell id="0" />
        <mxCell id="1" parent="0" />
        <mxCell id="4iZGEDI3hYGs3JJvgDZ3-13" value="" style="edgeStyle=orthogonalEdgeStyle;rounded=0;orthogonalLoop=1;jettySize=auto;html=1;" edge="1" parent="1" source="4iZGEDI3hYGs3JJvgDZ3-11" target="4iZGEDI3hYGs3JJvgDZ3-12">
          <mxGeometry relative="1" as="geometry" />
        </mxCell>
        <mxCell id="4iZGEDI3hYGs3JJvgDZ3-11" value="submit" style="rounded=0;whiteSpace=wrap;html=1;" vertex="1" parent="1">
          <mxGeometry x="200" y="110" width="120" height="30" as="geometry" />
        </mxCell>
        <mxCell id="4iZGEDI3hYGs3JJvgDZ3-18" value="" style="edgeStyle=orthogonalEdgeStyle;rounded=0;orthogonalLoop=1;jettySize=auto;html=1;" edge="1" parent="1" source="4iZGEDI3hYGs3JJvgDZ3-12" target="4iZGEDI3hYGs3JJvgDZ3-17">
          <mxGeometry relative="1" as="geometry" />
        </mxCell>
        <mxCell id="4iZGEDI3hYGs3JJvgDZ3-12" value="createTask" style="rounded=0;whiteSpace=wrap;html=1;" vertex="1" parent="1">
          <mxGeometry x="200" y="180" width="120" height="30" as="geometry" />
        </mxCell>
        <mxCell id="4iZGEDI3hYGs3JJvgDZ3-14" value="视频合成调用" style="text;html=1;strokeColor=none;fillColor=none;align=center;verticalAlign=middle;whiteSpace=wrap;rounded=0;" vertex="1" parent="1">
          <mxGeometry x="110" y="110" width="60" height="30" as="geometry" />
        </mxCell>
        <mxCell id="4iZGEDI3hYGs3JJvgDZ3-15" value="视频合成调用" style="text;html=1;strokeColor=none;fillColor=none;align=center;verticalAlign=middle;whiteSpace=wrap;rounded=0;" vertex="1" parent="1">
          <mxGeometry x="110" y="110" width="60" height="30" as="geometry" />
        </mxCell>
        <mxCell id="4iZGEDI3hYGs3JJvgDZ3-16" value="创建合成任务" style="text;html=1;strokeColor=none;fillColor=none;align=center;verticalAlign=middle;whiteSpace=wrap;rounded=0;" vertex="1" parent="1">
          <mxGeometry x="110" y="180" width="60" height="30" as="geometry" />
        </mxCell>
        <mxCell id="4iZGEDI3hYGs3JJvgDZ3-24" value="" style="edgeStyle=orthogonalEdgeStyle;rounded=0;orthogonalLoop=1;jettySize=auto;html=1;" edge="1" parent="1" source="4iZGEDI3hYGs3JJvgDZ3-17" target="4iZGEDI3hYGs3JJvgDZ3-23">
          <mxGeometry relative="1" as="geometry" />
        </mxCell>
        <mxCell id="4iZGEDI3hYGs3JJvgDZ3-17" value="createSceneTasks" style="rounded=0;whiteSpace=wrap;html=1;" vertex="1" parent="1">
          <mxGeometry x="200" y="250" width="120" height="30" as="geometry" />
        </mxCell>
        <mxCell id="4iZGEDI3hYGs3JJvgDZ3-19" value="创建场景任务" style="text;html=1;strokeColor=none;fillColor=none;align=center;verticalAlign=middle;whiteSpace=wrap;rounded=0;" vertex="1" parent="1">
          <mxGeometry x="110" y="250" width="60" height="30" as="geometry" />
        </mxCell>
        <mxCell id="4iZGEDI3hYGs3JJvgDZ3-22" value="分析是否包含虚拟人图层" style="text;html=1;strokeColor=none;fillColor=none;align=center;verticalAlign=middle;whiteSpace=wrap;rounded=0;" vertex="1" parent="1">
          <mxGeometry x="102.5" y="335" width="75" height="30" as="geometry" />
        </mxCell>
        <mxCell id="4iZGEDI3hYGs3JJvgDZ3-26" value="" style="edgeStyle=orthogonalEdgeStyle;rounded=0;orthogonalLoop=1;jettySize=auto;html=1;" edge="1" parent="1" source="4iZGEDI3hYGs3JJvgDZ3-23" target="4iZGEDI3hYGs3JJvgDZ3-25">
          <mxGeometry relative="1" as="geometry" />
        </mxCell>
        <mxCell id="4iZGEDI3hYGs3JJvgDZ3-30" value="" style="edgeStyle=orthogonalEdgeStyle;rounded=0;orthogonalLoop=1;jettySize=auto;html=1;" edge="1" parent="1" source="4iZGEDI3hYGs3JJvgDZ3-23" target="4iZGEDI3hYGs3JJvgDZ3-29">
          <mxGeometry relative="1" as="geometry" />
        </mxCell>
        <mxCell id="4iZGEDI3hYGs3JJvgDZ3-23" value="extractVtuber&lt;br&gt;Component" style="rhombus;whiteSpace=wrap;html=1;" vertex="1" parent="1">
          <mxGeometry x="190" y="320" width="140" height="60" as="geometry" />
        </mxCell>
        <mxCell id="4iZGEDI3hYGs3JJvgDZ3-25" value="createTaskEntity" style="whiteSpace=wrap;html=1;" vertex="1" parent="1">
          <mxGeometry x="425" y="335" width="120" height="30" as="geometry" />
        </mxCell>
        <mxCell id="4iZGEDI3hYGs3JJvgDZ3-27" value="直接创建最终视频" style="text;html=1;strokeColor=none;fillColor=none;align=center;verticalAlign=middle;whiteSpace=wrap;rounded=0;" vertex="1" parent="1">
          <mxGeometry x="433.75" y="300" width="102.5" height="30" as="geometry" />
        </mxCell>
        <mxCell id="4iZGEDI3hYGs3JJvgDZ3-28" value="No" style="text;html=1;strokeColor=none;fillColor=none;align=center;verticalAlign=middle;whiteSpace=wrap;rounded=0;" vertex="1" parent="1">
          <mxGeometry x="334" y="320" width="75" height="30" as="geometry" />
        </mxCell>
        <mxCell id="4iZGEDI3hYGs3JJvgDZ3-29" value="saveBatch" style="whiteSpace=wrap;html=1;" vertex="1" parent="1">
          <mxGeometry x="200" y="420" width="120" height="30" as="geometry" />
        </mxCell>
        <mxCell id="4iZGEDI3hYGs3JJvgDZ3-31" value="" style="edgeStyle=segmentEdgeStyle;endArrow=classic;html=1;curved=0;rounded=0;endSize=8;startSize=8;entryX=1;entryY=0.5;entryDx=0;entryDy=0;" edge="1" parent="1" target="4iZGEDI3hYGs3JJvgDZ3-29">
          <mxGeometry width="50" height="50" relative="1" as="geometry">
            <mxPoint x="484" y="365" as="sourcePoint" />
            <mxPoint x="334" y="435" as="targetPoint" />
            <Array as="points">
              <mxPoint x="484" y="435" />
            </Array>
          </mxGeometry>
        </mxCell>
      </root>
    </mxGraphModel>
  </diagram>
</mxfile>
